<svg id="Layer_1" data-name="Layer 1" xmlns="http://www.w3.org/2000/svg" viewBox="0 0 463.25 298.45"><defs><style>.cls-1{fill:#d4cbc3;stroke:#9c9793;stroke-width:4px;}.cls-1,.cls-2{stroke-miterlimit:10;}.cls-2{fill:#fff;stroke:#231f20;}</style></defs><path class="cls-1" d="M347,348c-72.84-21.93-118.69-26-191-32-4.55-.38-41.69-3-77,14-18.38,8.87-21.77,16.07-22,21-.43,9.07,9.56,16.25,12,18,21.22,15.24,50.93,5.16,75,1,52.3-9,125.41,1.64,143,37,11.47,23.06,1,59.88-20,73-3.62,2.27-6.59,2.92-12,4.25-30.36,7.52-49-3.35-87-6.25-15.71-1.2-46-3.51-50,7-3.18,8.35,11.66,20.88,13,22,14.12,11.72,29.51,12.11,52,14,43.57,3.66,65.36,5.49,90,14,11.53,4,26.07,10.2,42,17,29.63,12.66,28.37,13.55,35,15,32.1,7,45.09-17.41,71-14,37.11,4.89,43.7,59.44,63,57,25.19-3.18,50.4-100.73,14-142-7.52-8.53-15.3-12-31-30-18.18-20.88-24.07-35-32-46C425.84,379.33,411.46,367.4,347,348Z" transform="translate(-54.99 -313.63)"/><path class="cls-2" d="M349,503" transform="translate(-54.99 -313.63)"/></svg>