<svg id="Layer_1" data-name="Layer 1" xmlns="http://www.w3.org/2000/svg" viewBox="0 0 438.96 419.88"><defs><style>.cls-1{fill:#9b8579;stroke:#231f20;stroke-miterlimit:10;stroke-width:4px;}</style></defs><path class="cls-1" d="M441,403.37V413l-4.5,6-4.5,5H401l-5.69-4.27L393,418l-5-1-9-7H336l-8,3-14,11-8,6v6l-7,9v8l-8,13-8,16v9c0,.06-.85,9.31-.85,9.38l-5-11-4-5,8-13,3-9,1-12.5v-13.5l-3-12-2-11,8-3,11-4,15-6,8-5,12-8,6-6,6.5-5,6.5-1h8.5l11.5,2,9,3,12,2,9,2,8,1,12,1,5,9,1.12.62,7.88,4.38Z" transform="translate(-40.19 -326.88)"/><polygon class="cls-1" points="436.96 64 436.96 82 428.96 88 419.96 89 410.96 86 405.96 81 400.81 76.99 396.96 74 389.08 69.62 387.96 69 382.96 60 370.96 59 362.96 58 353.96 56 341.96 54 332.96 51 321.46 49 312.96 49 306.46 50 299.96 55 293.96 61 281.96 69 273.96 74 258.96 80 247.96 84 239.96 87 241.96 98 244.96 110 244.96 123.5 243.96 136 240.96 145 232.96 158 236.96 163 241.96 174 242.74 174.94 246.96 180 256.96 186 264.96 188 270.96 191 276.96 191 284.96 190 292.96 190 303.96 189 313.96 189 322.96 191 326.96 196 334.96 189 340.96 186 345.96 185 352.96 185 358.96 184 369.96 186 374.96 190 381.96 194 389.96 198 389.96 207 383.96 214 374.96 221 366.96 226 354.96 231 342.96 234 321.96 238 307.96 237 292.96 239 279.96 239 265.96 238 255.96 238 242.96 245 231.96 256 228.96 265 218.96 285 209.96 298 116.96 417 2.96 319 74.96 249 83.96 240 88.96 231 136.96 97 141.96 85 148.96 75 156.96 69 182.96 57 191.96 53 290.96 2 318.96 2 395.96 23 436.96 64"/><line class="cls-1" x1="241.96" y1="173.5" x2="242.74" y2="174.44"/><polyline class="cls-1" points="400.81 76.12 400.81 76.49 396.96 73.5 396.96 73.5"/></svg>