<svg id="Layer_1" data-name="Layer 1" xmlns="http://www.w3.org/2000/svg" viewBox="0 0 210.6 334.1"><defs><style>.cls-1{fill:#d4cbc3;stroke:#9c9793;}.cls-1,.cls-2{stroke-miterlimit:10;stroke-width:4px;}.cls-2{fill:#9b8579;stroke:#231f20;}</style></defs><path class="cls-1" d="M114,452c4.07,3.95,15.32,8.58,22,18,7.85,11.07,7.85,9.3,12,16,3.79,6.12,5.11,9.73,10,15,3.35,3.61,6.12,6.52,9,6,4.59-.83,6.37-9.83,7-13,1.38-7,.4-13-3-26-2.52-9.65-4.91-17.42-7-24-6.05-19.05-6.61-18.73-9-28-3-11.69-2.13-12.18-5-21-2.09-6.43-3.58-9.32-4-15-.31-4.22-1-13,4-16,4.07-2.43,9.77.39,11,1,2.21,1.1,4.75,3,8,8,4.19,6.48,5.15,11.34,8,20,2.74,8.33,2.7,6.41,6,16,5.22,15.16,4.14,16.54,9,30,2.63,7.28,6.61,17.05,7,17.94l.07.13,1.74,3-1.71-2.94a1,1,0,0,1-.11-.23Q181.43,400,163.88,343.16a1.26,1.26,0,0,1,0-.33v-11.3a1.12,1.12,0,0,1,.42-.86l9.34-7.35a1.09,1.09,0,0,1,.92-.2,29.09,29.09,0,0,1,18.41,13.74,1.57,1.57,0,0,1,.12.3c2,8.94,4.27,18.23,7,27.84,4,14.35,8.44,27.7,13,40,2.89,7.07,4.79,12.95,6,17,2.16,7.28,2.52,10.19,5,15,2.6,5.06,6,11.61,11,12,6.84.53,8-12.58,8-14,0-10,1.85-7.24,2-25,.09-10.48,1.13-17.73,1-24-.33-16-1.52-18.85-1-26,.46-6.31,0-24,5-25,0,0-4.43,6.57,0-3a45.94,45.94,0,0,1,5.6-4.1c3-.45,7.53-.64,10.4,2.1,2.53,2.42,2.3,5.75,3,14,.93,10.92,1.67,8.9,2,16a59.15,59.15,0,0,1-.11,8c-.28,3.54-.76,7.33-.89,16,0,.71,0,4.14,0,11,0,15.12.07,14.59,0,16-.23,4.93-2.25,13.33-2,20v.06a1.1,1.1,0,0,0,2.19.05L276,368.23a1.08,1.08,0,0,1,.13-.43l4.51-8.12a1.1,1.1,0,0,1,1.14-.55l4.95.82a1.13,1.13,0,0,1,.52.24l5.38,4.48a1.1,1.1,0,0,1,.39.84V403c-.08,14.58-.32,15.64,0,21,.2,3.38.8,8,2,17,1.9,14.34,2.87,21.59,4,26,2.88,11.23,4.62,10.13,7,20a87.6,87.6,0,0,1,2,27c-.41,6.43-1.09,7.41-5,28-2.63,13.85-3.95,20.78-4,23a79.8,79.8,0,0,0,8,36c4.22,8.27,6.06,7.81,6,11-.18,10.4-19.72,13.62-68,34-14.15,6-20.36,9-24,6-8-6.65,10.1-31.3-1-56a36.55,36.55,0,0,0-8.6-12.44c-10.83-10-20.16-5.22-35.4-12.56-11-5.31-17.5-13.26-27-25-4.9-6-8.6-12-16-24-2.65-4.28-6.77-11.52-15-26,0,0-4-7-10-19-5.51-11,4.88-20.12,6-25" transform="translate(-104.4 -321.09)"/><path class="cls-2" d="M349,524" transform="translate(-104.4 -321.09)"/></svg>